# xmcd CD database file
#
# Track frame offsets:
#	150
#	15794
#	33160
#	56117
#	74701
#	87804
#	108636
#	125395
#	141645
#	159332
#	179222
#	196414
#	220060
#	238397
#	251498
#	267251
#	280266
#	302150
#
# Disc length: 4421 seconds
#
# Revision: 0
# Processed by: cddbd v1.4PL0 Copyright (c) Steve Scherf et al.
# Submitted via: CDex 1.50
#
DISCID=12114312
DTITLE=Bruce Willis - Master Series
DYEAR=1997
DGENRE=Blues
TTITLE0=Comin' Right Up
TTITLE1=Respect Yourself
TTITLE2=Down in Hollywood
TTITLE3=Young Blood
TTITLE4=Under The Boardwalk
TTITLE5=Secret Agent Man/James Bond Is Back
TTITLE6=Jackpot (Bruno's Bop)
TTITLE7=Fun Time
TTITLE8=Lose Myself
TTITLE9=Flirting With Disaster
TTITLE10=Save The Last Dance for Me
TTITLE11=Blues for Mr. D
TTITLE12=Tenth Avenue Tango (Instrumental)
TTITLE13=Love Makes The World Go Round
TTITLE14=I'll Go Crazy
TTITLE15=Soul Shake
TTITLE16=Here Comes Trouble Again
TTITLE17=Respect Yourself (Extended 12" Version)
EXTD=YEAR: 1997
EXTT0=
EXTT1=
EXTT2=
EXTT3=
EXTT4=
EXTT5=
EXTT6=
EXTT7=
EXTT8=
EXTT9=
EXTT10=
EXTT11=
EXTT12=
EXTT13=
EXTT14=
EXTT15=
EXTT16=
EXTT17=
PLAYORDER=
